<svg width="19" height="18" viewBox="0 0 19 18" fill="none" xmlns="http://www.w3.org/2000/svg">
<path fill-rule="evenodd" clip-rule="evenodd" d="M2.54538 3.3539H12.1136L13.1681 2.29935H0L3.32814 5.6275L4.07375 4.88227L2.54538 3.3539ZM7.80711 8.616L5.8034 6.61229L5.05779 7.35752L6.75674 9.05685L6.75598 16.4216L12.1981 10.9806V9.05495L18.953 2.29973H16.6278L15.5733 3.35428H16.4076L11.1436 8.61828V10.5443L7.80673 13.8808L7.80711 8.616ZM12.5442 14.322C12.5442 12.8721 13.7178 11.6985 15.1677 11.6985C16.618 11.6985 17.7912 12.8713 17.7912 14.322C17.7912 15.7742 16.6195 16.9455 15.1677 16.9455C13.7178 16.9455 12.5442 15.7723 12.5442 14.322ZM15.1681 10.6443C13.1382 10.6443 11.4904 12.2921 11.4904 14.322C11.4904 16.3515 13.139 18 15.1681 18C17.196 18 18.8461 16.3503 18.8461 14.322C18.8457 12.2921 17.1979 10.6443 15.1681 10.6443ZM14.7655 12.4805C14.3974 12.592 14.0824 12.8846 13.9623 13.2519C13.7674 13.8493 14.1348 14.416 14.6965 14.6177C14.8739 14.6813 15.3739 14.748 15.5073 14.8621C15.5907 14.9334 15.6457 15.0358 15.6093 15.1457C15.538 15.3617 15.292 15.4527 15.082 15.4046C14.8906 15.3602 14.7602 15.2378 14.6135 15.1184L14.0555 15.6919C14.2902 15.8932 14.4702 16.0535 14.7655 16.1528V16.6301H15.571V16.1654C15.9383 16.0547 16.2537 15.7601 16.3739 15.394C16.566 14.806 16.2131 14.2337 15.6396 14.0286C15.4543 13.9615 14.9656 13.9001 14.8288 13.7837C14.6082 13.5961 14.7454 13.3414 14.977 13.2564C15.1885 13.1768 15.4114 13.2735 15.5771 13.4081L15.7234 13.5271L16.281 12.9536C16.0494 12.7546 15.8701 12.5935 15.5714 12.4926V12.015H14.7659L14.7655 12.4805ZM6.47889 5.43456C6.59829 5.37694 6.69912 5.29734 6.77986 5.20219L10.7547 5.90194C10.9423 6.40836 11.5283 6.64451 12.0154 6.4095C12.418 6.21504 12.6147 5.76623 12.5059 5.34965L16.0467 1.80885C16.2507 1.86192 16.4732 1.84562 16.6775 1.74706C17.135 1.52683 17.3268 0.977194 17.1066 0.520048C16.8856 0.0629024 16.3359 -0.129281 15.8788 0.0917109C15.4766 0.285789 15.2799 0.734596 15.3887 1.1508L11.8479 4.6916C11.644 4.63853 11.4214 4.65445 11.2168 4.75339C11.0973 4.811 10.9965 4.89098 10.9158 4.98575L6.94096 4.28638C6.75522 3.77958 6.16616 3.54419 5.68021 3.77882C5.27765 3.9729 5.08053 4.42171 5.1897 4.83867L3.48811 6.53989C3.28417 6.48644 3.06128 6.50275 2.85659 6.6013C2.39945 6.82229 2.20764 7.37117 2.42826 7.82869C2.64887 8.28622 3.1985 8.47802 3.65603 8.25703C4.05821 8.06295 4.25494 7.61415 4.14615 7.19794L5.84813 5.49634C6.05169 5.54941 6.27457 5.53311 6.47889 5.43456Z" fill="#DE8734"/>
</svg>
