<svg width="17" height="18" viewBox="0 0 17 18" fill="none" xmlns="http://www.w3.org/2000/svg">
<path d="M3.88764 15.077L3.61601 13.1576C3.57734 12.8844 3.32426 12.6937 3.05134 12.7329C2.77811 12.7716 2.58798 13.0244 2.62665 13.2976L2.68748 13.7274C2.16877 13.0873 1.75574 12.3614 1.46963 11.5791C-0.555718 6.04159 4.33554 0.456819 10.0383 1.6733C10.3081 1.73073 10.5735 1.55879 10.6312 1.28893C10.6888 1.01906 10.5167 0.753629 10.2468 0.696039C3.80723 -0.67786 -1.77827 5.60818 0.531198 11.9223C0.854754 12.807 1.3216 13.6283 1.9081 14.353L1.42532 14.2603C1.15426 14.2083 0.892459 14.3857 0.840398 14.6566C0.788338 14.9276 0.965804 15.1895 1.23677 15.2416L3.25605 15.6295C3.61971 15.7321 3.93587 15.4172 3.88764 15.077Z" fill="#DE8734"/>
<path d="M16.4795 6.08312C16.1559 5.19842 15.6891 4.3771 15.1026 3.65245L15.5854 3.74518C15.8562 3.79714 16.1183 3.61977 16.1703 3.34881C16.2224 3.07781 16.0449 2.81594 15.774 2.76388L13.7543 2.37588C13.3953 2.27482 13.0741 2.58289 13.1231 2.92839L13.3947 4.84782C13.43 5.0973 13.6438 5.27749 13.8888 5.27749C14.1942 5.27749 14.4265 5.0076 14.3841 4.70779L14.3233 4.27794C14.842 4.9181 15.255 5.64398 15.5411 6.4263C16.9595 10.3045 14.9645 14.6156 11.094 16.0366C9.76978 16.5227 8.34459 16.6248 6.97245 16.3321C6.70269 16.2745 6.43716 16.4466 6.37957 16.7165C6.32198 16.9863 6.49408 17.2518 6.76394 17.3093C8.32067 17.6415 9.93702 17.5257 11.4383 16.9746C15.8362 15.3601 18.0909 10.4887 16.4795 6.08312Z" fill="#DE8734"/>
<path d="M13.6845 9.02894C13.6845 6.16832 11.3612 3.84104 8.50533 3.84104C5.64951 3.84104 3.32613 6.16832 3.32613 9.02894C3.32613 11.8896 5.64951 14.2168 8.50533 14.2168C11.3612 14.2168 13.6845 11.8896 13.6845 9.02894ZM4.32538 9.02894C4.32538 6.71931 6.2005 4.84029 8.50533 4.84029C10.8102 4.84029 12.6853 6.71931 12.6853 9.02894C12.6853 11.3386 10.8102 13.2176 8.50533 13.2176C6.2005 13.2176 4.32538 11.3386 4.32538 9.02894Z" fill="#DE8734"/>
<path d="M9.00496 11.8353V11.4182C9.87074 11.4182 10.4732 10.7388 10.4732 9.97379C10.4732 9.17729 9.82594 8.52931 9.03044 8.52931H7.98026C7.73571 8.52931 7.53679 8.3296 7.53679 8.08408C7.53679 7.84713 7.72329 7.63888 7.98722 7.63888H8.9927C9.16913 7.64065 9.34373 7.72016 9.47194 7.85722C9.6604 8.05873 9.97656 8.06926 10.1781 7.88077C10.3796 7.69228 10.3901 7.37611 10.2017 7.1746C9.88829 6.83958 9.45242 6.64503 9.00496 6.63987V6.22262C9.00496 5.94669 8.78126 5.72299 8.50533 5.72299C8.22941 5.72299 8.00571 5.94669 8.00571 6.22262V6.63967C7.13993 6.63967 6.53751 7.31916 6.53751 8.08411C6.53751 8.88062 7.18473 9.52859 7.98023 9.52859H9.0304C9.27495 9.52859 9.47387 9.72831 9.47387 9.97383C9.47387 10.221 9.27439 10.4191 9.03047 10.4191C9.02814 10.4191 9.02574 10.419 9.02341 10.419H7.9263C7.80183 10.4178 7.66943 10.3726 7.55332 10.292C7.32669 10.1345 7.01535 10.1905 6.8579 10.4171C6.70042 10.6437 6.75645 10.955 6.98304 11.1125C7.32512 11.3503 7.64351 11.4183 8.00567 11.4183V11.8354C8.00567 12.1113 8.22937 12.335 8.5053 12.335C8.78126 12.3349 9.00496 12.1112 9.00496 11.8353Z" fill="#DE8734"/>
</svg>
