<svg width="21" height="18" viewBox="0 0 21 18" fill="none" xmlns="http://www.w3.org/2000/svg">
<path d="M20.2388 7.06024C19.9888 6.56257 19.5841 6.16276 19.0697 5.9336L6.20193 0.211928C5.60848 -0.052755 4.94782 -0.06982 4.34149 0.162474C3.73411 0.395813 3.2542 0.851694 2.99021 1.44619L0.206514 7.7028C-0.332951 8.92765 0.221141 10.3667 1.44182 10.9117L1.95307 11.1391V15.5677C1.95307 16.9092 3.04419 18 4.38537 18H18.4672C19.8087 18 20.8995 16.9089 20.8995 15.5677V8.72113C20.8995 8.07858 20.6473 7.49523 20.2388 7.06024ZM18.4668 7.68225C19.0401 7.68225 19.5061 8.14823 19.5061 8.72113V9.65414C18.5431 9.40269 17.7856 8.64486 17.5338 7.68225H18.4668ZM1.48013 8.26699L4.26312 2.01177C4.37596 1.75788 4.58109 1.56285 4.84055 1.46325C5.10001 1.36399 5.38176 1.37131 5.6353 1.48449L16.441 6.28953H4.38502C3.04384 6.28953 1.95272 7.38065 1.95272 8.72148V9.60782C1.47177 9.35602 1.25863 8.76954 1.48013 8.26699ZM5.31803 7.68225C5.06658 8.64486 4.30875 9.40269 3.34614 9.65414V8.72113C3.34614 8.14788 3.81212 7.68225 4.38537 7.68225H5.31803ZM3.34579 15.5677V14.6347C4.3084 14.8865 5.06623 15.644 5.31768 16.6069H4.38502C3.81177 16.6069 3.34579 16.1406 3.34579 15.5677ZM6.74522 16.6073C6.45129 14.8733 5.07981 13.5018 3.34614 13.2079V11.0813C5.07981 10.7874 6.45163 9.41627 6.74522 7.68225H16.107C16.4009 9.41627 17.7724 10.7874 19.5064 11.0813V13.2079C17.7724 13.5018 16.4009 14.8733 16.107 16.6073H6.74522ZM18.4668 16.6073H17.5338C17.7856 15.6443 18.5431 14.8865 19.5061 14.635V15.5681C19.5061 16.1413 19.0397 16.6073 18.4668 16.6073Z" fill="#DE8734"/>
<path d="M11.4263 9.74782C10.1046 9.74782 9.0295 10.8233 9.0295 12.1449C9.0295 13.4666 10.1046 14.5417 11.4263 14.5417C12.7479 14.5417 13.823 13.4666 13.823 12.1449C13.823 10.8233 12.7479 9.74782 11.4263 9.74782ZM11.4263 13.1483C10.8729 13.1483 10.4226 12.698 10.4226 12.1446C10.4226 11.5912 10.8729 11.1405 11.4263 11.1405C11.9797 11.1405 12.43 11.5908 12.43 12.1446C12.43 12.6983 11.9797 13.1483 11.4263 13.1483Z" fill="#DE8734"/>
</svg>
