<svg width="18" height="18" viewBox="0 0 18 18" fill="none" xmlns="http://www.w3.org/2000/svg">
<path d="M10.9125 18H7.0875C3.20625 18 0 14.7938 0 10.9125V7.0875C0 3.20625 3.20625 0 7.0875 0H10.9125C14.7938 0 18 3.20625 18 7.0875V10.9125C18 14.7938 14.7938 18 10.9125 18ZM7.0875 1.6875C4.10625 1.6875 1.6875 4.10625 1.6875 7.0875V10.9125C1.6875 13.8938 4.10625 16.3125 7.0875 16.3125H10.9125C13.8938 16.3125 16.3125 13.8938 16.3125 10.9125V7.0875C16.3125 4.10625 13.8938 1.6875 10.9125 1.6875H7.0875Z" fill="#DE8734"/>
<path d="M9 13.2188C8.55 13.2188 8.15625 12.825 8.15625 12.375V5.625C8.15625 5.175 8.55 4.78125 9 4.78125C9.45 4.78125 9.84375 5.175 9.84375 5.625V12.375C9.84375 12.825 9.45 13.2188 9 13.2188Z" fill="#DE8734"/>
<path d="M12.375 9.84375H5.625C5.175 9.84375 4.78125 9.45 4.78125 9C4.78125 8.55 5.175 8.15625 5.625 8.15625H12.375C12.825 8.15625 13.2188 8.55 13.2188 9C13.2188 9.45 12.825 9.84375 12.375 9.84375Z" fill="#DE8734"/>
</svg>
