<svg width="20" height="18" viewBox="0 0 20 18" fill="none" xmlns="http://www.w3.org/2000/svg">
<path d="M17.0303 6.39666C16.871 4.7746 16.1144 3.26967 14.9076 2.17419C13.7008 1.0787 12.1299 0.47087 10.5 0.46875H9.1875C7.55763 0.47087 5.98672 1.0787 4.77991 2.17419C3.5731 3.26967 2.81653 4.7746 2.65716 6.39666C1.9367 6.44879 1.26257 6.77125 0.769811 7.29942C0.277057 7.82759 0.00208853 8.52245 0 9.24478V11.3802C0.000868448 12.1411 0.303498 12.8705 0.841499 13.4085C1.3795 13.9465 2.10893 14.2491 2.86978 14.25H4.59375C4.67993 14.25 4.76527 14.233 4.84489 14.2C4.92451 14.1671 4.99685 14.1187 5.05779 14.0578C5.11873 13.9969 5.16707 13.9245 5.20005 13.8449C5.23303 13.7653 5.25 13.6799 5.25 13.5938V7.03125C5.25 6.8572 5.18086 6.69028 5.05779 6.56721C4.93472 6.44414 4.7678 6.375 4.59375 6.375H3.98278C4.14361 5.10745 4.76072 3.94191 5.71867 3.09641C6.67662 2.25091 7.90979 1.78337 9.1875 1.78125H10.5C11.7777 1.78337 13.0109 2.25091 13.9688 3.09641C14.9268 3.94191 15.5439 5.10745 15.7047 6.375H15.0938C14.9197 6.375 14.7528 6.44414 14.6297 6.56721C14.5066 6.69028 14.4375 6.8572 14.4375 7.03125V13.5938C14.4375 13.7678 14.5066 13.9347 14.6297 14.0578C14.7528 14.1809 14.9197 14.25 15.0938 14.25H15.6568C15.5117 14.8118 15.1846 15.3098 14.7265 15.666C14.2685 16.0222 13.7053 16.2166 13.125 16.2188H11.8125V15.5625C11.8125 15.3885 11.7434 15.2215 11.6203 15.0985C11.4972 14.9754 11.3303 14.9062 11.1562 14.9062C10.9822 14.9062 10.8153 14.9754 10.6922 15.0985C10.5691 15.2215 10.5 15.3885 10.5 15.5625V16.875C10.5 17.049 10.5691 17.216 10.6922 17.339C10.8153 17.4621 10.9822 17.5312 11.1562 17.5312H13.125C14.058 17.5302 14.9604 17.1978 15.6712 16.5934C16.382 15.9889 16.8551 15.1517 17.0061 14.231C17.7312 14.1844 18.4115 13.864 18.9093 13.3347C19.4072 12.8055 19.6853 12.1068 19.6875 11.3802V9.24478C19.6854 8.52245 19.4104 7.82759 18.9177 7.29942C18.4249 6.77125 17.7508 6.44879 17.0303 6.39666ZM3.9375 12.9375H2.86978C2.45687 12.9372 2.06097 12.773 1.769 12.481C1.47703 12.189 1.31285 11.7931 1.3125 11.3802V9.24478C1.31285 8.83187 1.47703 8.43597 1.769 8.144C2.06097 7.85203 2.45687 7.68785 2.86978 7.6875H3.9375V12.9375ZM18.375 11.3802C18.3747 11.7931 18.2105 12.189 17.9185 12.481C17.6265 12.773 17.2306 12.9372 16.8177 12.9375H15.75V7.6875H16.8177C17.2306 7.68785 17.6265 7.85203 17.9185 8.144C18.2105 8.43597 18.3747 8.83187 18.375 9.24478V11.3802Z" fill="#DE8734"/>
</svg>
