<svg width="19" height="16" viewBox="0 0 19 16" fill="none" xmlns="http://www.w3.org/2000/svg">
<path d="M14.75 2.50001H14.753C15.6134 2.50258 16.4378 2.8455 17.0461 3.45388L16.339 4.16098L17.0461 3.45388C17.6545 4.06225 17.9974 4.88665 18 5.74702L18 5.75001L18 11.75V11.753C17.9974 12.6134 17.6545 13.4378 17.0461 14.0461C16.4378 14.6545 15.6134 14.9974 14.753 15L14.75 15L4.25 15H4.24701C3.38664 14.9974 2.56225 14.6545 1.95387 14.0461C1.34549 13.4378 1.00257 12.6134 1 11.753L0.999996 11.75L1 5.75001V5.74702H1C1.00257 4.88665 1.34549 4.06225 1.95387 3.45388C2.56225 2.8455 3.38664 2.50258 4.24701 2.50001L4.25 2.5V2.50001H5.41887L5.68805 1.96532C5.8326 1.67487 6.05544 1.43056 6.33147 1.25998C6.60797 1.08911 6.92677 0.999064 7.25176 1.00001M14.75 2.50001L7.25 2.00001M14.75 2.50001H13.5811L13.312 1.96538C13.1674 1.67491 12.9446 1.43057 12.6685 1.25998C12.392 1.08911 12.0732 0.999064 11.7482 1.00001M14.75 2.50001L11.75 2.00001M7.25176 1.00001C7.25266 1.00001 7.25355 1.00001 7.25444 1.00002L7.25 2.00001M7.25176 1.00001H7.25V2.00001M7.25176 1.00001H11.7482M7.25 2.00001H11.75M11.7482 1.00001C11.7473 1.00001 11.7465 1.00001 11.7456 1.00002L11.75 2.00001M11.7482 1.00001H11.75V2.00001M7.5 8.75C7.5 8.35444 7.6173 7.96776 7.83706 7.63886C8.05682 7.30997 8.36918 7.05362 8.73463 6.90225C9.10008 6.75087 9.50222 6.71126 9.89018 6.78843C10.2781 6.8656 10.6345 7.05609 10.9142 7.33579C11.1939 7.6155 11.3844 7.97186 11.4616 8.35982C11.5387 8.74779 11.4991 9.14992 11.3478 9.51537C11.1964 9.88082 10.94 10.1932 10.6111 10.4129C10.2822 10.6327 9.89556 10.75 9.5 10.75C8.96957 10.75 8.46086 10.5393 8.08579 10.1642C7.71071 9.78914 7.5 9.28044 7.5 8.75Z" fill="#DE8734" stroke="#141414" stroke-width="2"/>
</svg>
