<svg width="18" height="18" viewBox="0 0 18 18" fill="none" xmlns="http://www.w3.org/2000/svg">
<path d="M9 0C4.02571 0 0 4.02525 0 9C0 13.9742 4.02525 18 9 18C13.9743 18 18 13.9748 18 9C18 4.02571 13.9748 0 9 0ZM9 16.7442C4.72985 16.7442 1.25582 13.2702 1.25582 9C1.25582 4.72982 4.72985 1.25582 9 1.25582C13.2702 1.25582 16.7442 4.72982 16.7442 9C16.7442 13.2702 13.2702 16.7442 9 16.7442Z" fill="#DE8734"/>
<path d="M8.73369 11.388C8.23612 11.388 7.83334 11.8026 7.83334 12.3001C7.83334 12.7859 8.22428 13.2124 8.73369 13.2124C9.2431 13.2124 9.64585 12.7859 9.64585 12.3001C9.64585 11.8026 9.23122 11.388 8.73369 11.388Z" fill="#DE8734"/>
<path d="M8.88768 4.48133C7.28835 4.48133 6.55386 5.42911 6.55386 6.06881C6.55386 6.53084 6.9448 6.74409 7.26465 6.74409C7.90439 6.74409 7.64378 5.83186 8.85213 5.83186C9.44445 5.83186 9.91835 6.09251 9.91835 6.63747C9.91835 7.27717 9.25492 7.64441 8.86398 7.97611C8.5204 8.27223 8.07026 8.75799 8.07026 9.77681C8.07026 10.3928 8.23612 10.5705 8.72181 10.5705C9.30227 10.5705 9.42075 10.3099 9.42075 10.0848C9.42075 9.46877 9.4326 9.11338 10.0842 8.60396C10.404 8.3552 11.411 7.54959 11.411 6.43602C11.411 5.32245 10.404 4.48133 8.88768 4.48133Z" fill="#DE8734"/>
</svg>
