<svg width="15" height="18" viewBox="0 0 15 18" fill="none" xmlns="http://www.w3.org/2000/svg">
<path d="M14.311 15.5928L12.468 11.5568C12.6475 11.4263 12.8151 11.2727 12.9538 11.0822C13.2742 10.6419 13.3592 10.111 13.4342 9.64254C13.4734 9.39711 13.5105 9.16528 13.5757 8.96446C13.6366 8.77697 13.74 8.57566 13.8494 8.3625C14.0685 7.93573 14.3168 7.45203 14.3168 6.88621C14.3168 6.32039 14.0685 5.83667 13.8494 5.40989C13.74 5.19674 13.6366 4.99539 13.5757 4.80793C13.5105 4.60719 13.4734 4.37536 13.4342 4.12996C13.3592 3.66153 13.2742 3.13055 12.9538 2.69024C12.6307 2.24627 12.1506 2.00176 11.727 1.786C11.5072 1.67399 11.2994 1.5682 11.1318 1.4462C10.9678 1.32684 10.8056 1.16371 10.6337 0.990987C10.2967 0.652213 9.91464 0.268226 9.38528 0.0963425C8.87588 -0.069072 8.34877 0.0134419 7.88368 0.0862524C7.6336 0.125382 7.39738 0.162368 7.17927 0.162368C6.96115 0.162368 6.72493 0.125382 6.47482 0.0862524C6.00973 0.0134419 5.48258 -0.0690369 4.97326 0.0963425C4.4439 0.268226 4.06188 0.652213 3.72483 0.990987C3.55301 1.16371 3.39069 1.32684 3.22672 1.4462C3.05916 1.56816 2.85145 1.67395 2.63158 1.78596C2.20801 2.00172 1.72793 2.24627 1.40484 2.69024C1.08438 3.13055 0.999407 3.66153 0.924416 4.13C0.885146 4.37539 0.84802 4.60722 0.782838 4.80797C0.721981 4.99546 0.618619 5.19681 0.509175 5.40997C0.290075 5.83674 0.0417599 6.32043 0.0417599 6.88625C0.0417599 7.45207 0.290075 7.9358 0.509175 8.36257C0.618619 8.57573 0.721981 8.77707 0.782838 8.96457C0.84802 9.16531 0.885111 9.39714 0.924416 9.64257C0.999372 10.111 1.08438 10.642 1.4048 11.0823C1.54343 11.2727 1.71106 11.4263 1.89061 11.5569L0.0476663 15.5928C-0.0375548 15.7794 -0.00682731 15.9985 0.126418 16.1544C0.259699 16.3104 0.47131 16.3749 0.668859 16.3199L2.75881 15.7378L3.68763 17.6984C3.77493 17.8827 3.96052 18 4.16419 18H4.16791C4.37302 17.9986 4.55872 17.8783 4.64391 17.6917L6.47282 13.6865C6.47349 13.6864 6.47419 13.6863 6.47486 13.6862C6.72497 13.6471 6.96119 13.6101 7.1793 13.6101C7.39742 13.6101 7.63367 13.6471 7.88375 13.6862C7.88441 13.6863 7.88512 13.6864 7.88579 13.6865L9.7147 17.6917C9.79992 17.8783 9.98555 17.9985 10.1907 18H10.1944C10.398 18 10.5837 17.8826 10.671 17.6984L11.5998 15.7378L13.6897 16.3199C13.8872 16.3749 14.0989 16.3103 14.2322 16.1544C14.3654 15.9984 14.3962 15.7794 14.311 15.5928ZM4.15543 16.2223L3.52179 14.8848C3.41193 14.6528 3.15092 14.5337 2.90373 14.6026L1.478 14.9997L2.81169 12.079C2.96389 12.1586 3.10585 12.2382 3.22676 12.3262C3.39076 12.4456 3.55305 12.6087 3.72486 12.7814C4.06191 13.1202 4.44393 13.5042 4.97329 13.6761C5.0768 13.7097 5.181 13.7327 5.28528 13.7481L4.15543 16.2223ZM6.31183 12.6442C5.92964 12.704 5.56865 12.7605 5.29906 12.6729C5.012 12.5797 4.75001 12.3163 4.47262 12.0376C4.27926 11.8432 4.07928 11.6422 3.84739 11.4734C3.61232 11.3023 3.35715 11.1724 3.11035 11.0466C2.76149 10.869 2.43199 10.7011 2.25765 10.4616C2.08594 10.2256 2.02765 9.86139 1.96595 9.47579C1.922 9.20135 1.87658 8.91756 1.78605 8.63877C1.699 8.37069 1.57117 8.12167 1.44752 7.88081C1.26702 7.52921 1.09651 7.19707 1.09651 6.88618C1.09651 6.57532 1.26702 6.24319 1.44752 5.89158C1.57117 5.65076 1.699 5.4017 1.78605 5.13359C1.87654 4.85483 1.92197 4.57104 1.96591 4.29661C2.02761 3.91097 2.08594 3.54674 2.25765 3.31076C2.43196 3.07124 2.76149 2.9034 3.11032 2.72568C3.35712 2.59996 3.61229 2.46998 3.84739 2.29887C4.07925 2.13015 4.27922 1.92912 4.47259 1.73477C4.74998 1.45594 5.01197 1.19261 5.29899 1.09938C5.39908 1.06689 5.51169 1.05424 5.63337 1.05424C5.83946 1.05424 6.07143 1.09055 6.31176 1.12817C6.5907 1.1718 6.87913 1.21694 7.17927 1.21694C7.4794 1.21694 7.76783 1.1718 8.04677 1.12817C8.42893 1.06833 8.78999 1.01187 9.05958 1.09938C9.34664 1.19258 9.60863 1.45594 9.88602 1.73474C10.0794 1.92912 10.2794 2.13015 10.5113 2.29887C10.7464 2.46998 11.0015 2.59996 11.2483 2.72568C11.5972 2.9034 11.9266 3.07124 12.101 3.31076C12.2727 3.5467 12.331 3.9109 12.3927 4.29654C12.4366 4.57097 12.482 4.85476 12.5726 5.13356C12.6596 5.40163 12.7874 5.65065 12.9111 5.89148C13.0916 6.24308 13.2621 6.57521 13.2621 6.88611C13.2621 7.19697 13.0916 7.5291 12.9111 7.88071C12.7875 8.12157 12.6596 8.37059 12.5726 8.63866C12.4821 8.91749 12.4366 9.20128 12.3927 9.47575C12.331 9.86136 12.2727 10.2255 12.101 10.4615C11.9266 10.701 11.5972 10.8689 11.2483 11.0466C11.0015 11.1723 10.7464 11.3023 10.5113 11.4733C10.2794 11.6421 10.0794 11.8431 9.88602 12.0375C9.60863 12.3163 9.34664 12.5796 9.05962 12.6728C8.79003 12.7603 8.42903 12.7039 8.04681 12.644C7.76787 12.6004 7.47944 12.5553 7.17927 12.5553C6.87917 12.5553 6.59074 12.6005 6.31183 12.6442ZM11.4549 14.6026C11.2078 14.5337 10.9468 14.6529 10.8369 14.8848L10.2032 16.2223L9.07336 13.7479C9.17767 13.7326 9.28191 13.7097 9.38542 13.6761C9.91478 13.5042 10.2968 13.1202 10.6338 12.7814C10.8057 12.6087 10.968 12.4456 11.132 12.3262C11.2529 12.2382 11.3949 12.1586 11.5471 12.079L12.8807 14.9996L11.4549 14.6026Z" fill="#DE8734"/>
<path d="M10.051 9.50606V8.46924C10.051 7.8003 9.65001 7.20671 9.02938 6.95702L8.9232 6.91431C9.1538 6.57634 9.28887 6.16827 9.28887 5.72919L9.28863 5.08156C9.28852 3.92535 8.34754 2.97962 7.18809 2.97336H7.16763C6.01103 2.97986 5.07005 3.9257 5.07005 5.08156L5.06984 5.7294C5.06984 6.16841 5.20491 6.57638 5.43547 6.91434L5.3293 6.95706C4.7087 7.20674 4.3077 7.80034 4.3077 8.46927V9.50609C4.3077 9.79734 4.54381 10.0335 4.83506 10.0335H9.52365C9.8149 10.0334 10.051 9.7973 10.051 9.50606ZM6.12476 5.08177C6.12476 4.50403 6.59524 4.03135 7.17062 4.02811H7.18528C7.76351 4.03124 8.23395 4.50389 8.23395 5.08177L8.23419 5.7294C8.23419 6.31048 7.76101 6.78324 7.17937 6.78324C6.59777 6.78324 6.12459 6.31048 6.12459 5.72958L6.12476 5.08177ZM8.9963 8.9787H5.36238V8.46924C5.36238 8.23316 5.50392 8.02365 5.72292 7.93552L6.36858 7.67578C6.61833 7.78009 6.89214 7.83796 7.1793 7.83796C7.46647 7.83796 7.74031 7.78012 7.99003 7.67578L8.63569 7.93552C8.85472 8.02362 8.99626 8.23312 8.99626 8.46924V8.9787H8.9963Z" fill="#DE8734"/>
</svg>
