<svg width="16" height="18" viewBox="0 0 16 18" fill="none" xmlns="http://www.w3.org/2000/svg">
    <path
        d="M7.39516 8.67067C8.58635 8.67067 9.61769 8.24344 10.4606 7.40051C11.3033 6.55773 11.7306 5.52652 11.7306 4.3352C11.7306 3.14428 11.3034 2.11294 10.4605 1.26988C9.61755 0.42723 8.58621 0 7.39516 0C6.20383 0 5.17263 0.42723 4.32984 1.27002C3.48705 2.1128 3.05969 3.14414 3.05969 4.3352C3.05969 5.52652 3.48705 6.55786 4.32984 7.40065C5.1729 8.2433 6.20424 8.67067 7.39516 8.67067ZM5.07581 2.01585C5.72249 1.36917 6.4811 1.05482 7.39516 1.05482C8.30908 1.05482 9.06782 1.36917 9.71464 2.01585C10.3613 2.66267 10.6758 3.42141 10.6758 4.3352C10.6758 5.24926 10.3613 6.00786 9.71464 6.65468C9.06782 7.3015 8.30908 7.61585 7.39516 7.61585C6.48137 7.61585 5.72277 7.30136 5.07581 6.65468C4.42899 6.008 4.11451 5.24926 4.11451 4.3352C4.11451 3.42141 4.42899 2.66267 5.07581 2.01585Z"
        fill="#DE8734" />
    <path
        d="M14.9811 13.8411C14.9568 13.4904 14.9076 13.1078 14.8352 12.7037C14.7622 12.2967 14.6681 11.9119 14.5555 11.5602C14.439 11.1967 14.281 10.8377 14.0853 10.4937C13.8824 10.1367 13.644 9.82574 13.3765 9.5699C13.0968 9.30224 12.7543 9.08705 12.3582 8.93008C11.9635 8.77394 11.5261 8.69484 11.0583 8.69484C10.8745 8.69484 10.6968 8.77023 10.3536 8.99367C10.1424 9.13141 9.89537 9.29071 9.61961 9.4669C9.38382 9.61714 9.06439 9.7579 8.66984 9.88534C8.28491 10.0099 7.89407 10.0731 7.50818 10.0731C7.12256 10.0731 6.73172 10.0099 6.34652 9.88534C5.95238 9.75804 5.63282 9.61728 5.39744 9.46704C5.12429 9.29249 4.8771 9.13319 4.66273 8.99353C4.31982 8.77009 4.14211 8.6947 3.95837 8.6947C3.49035 8.6947 3.05309 8.77394 2.65855 8.93022C2.26277 9.08691 1.92013 9.30211 1.64012 9.57003C1.3726 9.82602 1.1342 10.1368 0.931502 10.4937C0.736083 10.8377 0.57788 11.1966 0.461425 11.5603C0.348953 11.912 0.254882 12.2967 0.181823 12.7037C0.109314 13.1072 0.0602874 13.49 0.0359802 13.8415C0.0120849 14.1852 0 14.543 0 14.9044C0 15.844 0.29869 16.6047 0.887694 17.1657C1.46942 17.7193 2.23901 18 3.17518 18H11.8423C12.7782 18 13.5478 17.7193 14.1296 17.1657C14.7188 16.6051 15.0175 15.8442 15.0175 14.9043C15.0173 14.5416 15.0051 14.1839 14.9811 13.8411ZM13.4023 16.4015C13.018 16.7673 12.5076 16.9451 11.8421 16.9451H3.17518C2.50955 16.9451 1.99923 16.7673 1.61499 16.4016C1.23802 16.0428 1.05482 15.5529 1.05482 14.9044C1.05482 14.5672 1.06595 14.2341 1.08819 13.9144C1.10989 13.6008 1.15425 13.2562 1.22003 12.8901C1.28499 12.5285 1.36766 12.1892 1.46599 11.882C1.56033 11.5874 1.68901 11.2957 1.84858 11.0147C2.00088 10.7469 2.17611 10.5172 2.36947 10.3321C2.55033 10.1589 2.7783 10.0172 3.04692 9.91089C3.29534 9.81256 3.57453 9.75873 3.87762 9.75062C3.91456 9.77026 3.98034 9.80775 4.08691 9.87724C4.30375 10.0186 4.55369 10.1798 4.82999 10.3562C5.14145 10.5548 5.54273 10.7342 6.02214 10.8889C6.51227 11.0474 7.01215 11.1279 7.50832 11.1279C8.00449 11.1279 8.5045 11.0474 8.99435 10.8891C9.47418 10.734 9.87532 10.5548 10.1872 10.356C10.47 10.1752 10.7129 10.0187 10.9297 9.87724C11.0363 9.80789 11.1021 9.77026 11.139 9.75062C11.4422 9.75873 11.7214 9.81256 11.97 9.91089C12.2385 10.0172 12.4664 10.159 12.6473 10.3321C12.8407 10.5171 13.0159 10.7468 13.1682 11.0149C13.3279 11.2957 13.4567 11.5875 13.5509 11.8818C13.6494 12.1894 13.7322 12.5286 13.797 12.89C13.8627 13.2568 13.9072 13.6015 13.9289 13.9146C13.9512 14.233 13.9625 14.5662 13.9626 14.9044C13.9625 15.553 13.7793 16.0428 13.4023 16.4015Z"
        fill="#DE8734" />
</svg>