<svg width="16" height="18" viewBox="0 0 16 18" fill="none" xmlns="http://www.w3.org/2000/svg">
<path d="M14.754 2.91466L7.86336 0.0537495C7.69075 -0.0178989 7.49672 -0.0179341 7.32414 0.0537495L0.433512 2.91466C0.17107 3.02364 0 3.27986 0 3.56403V7.04186C0 11.8306 2.89438 16.1382 7.32804 17.9479C7.49834 18.0174 7.68913 18.0174 7.85946 17.9479C12.2931 16.1382 15.1875 11.8306 15.1875 7.04186V3.56403C15.1875 3.27986 15.0165 3.02364 14.754 2.91466ZM13.7812 7.04186C13.7812 11.1128 11.3906 14.8603 7.59375 16.5331C3.89834 14.905 1.40625 11.2231 1.40625 7.04186V4.03344L7.59375 1.46443L13.7812 4.03344V7.04186ZM6.81659 9.41189L9.83876 6.38975C10.1133 6.11518 10.5585 6.11514 10.8331 6.38975C11.1077 6.66436 11.1077 7.10954 10.8331 7.38411L7.31377 10.9034C7.03912 11.1781 6.59394 11.178 6.31941 10.9034L4.35438 8.9384C4.07978 8.6638 4.07978 8.21861 4.35438 7.94404C4.62899 7.66947 5.07417 7.66944 5.34874 7.94404L6.81659 9.41189Z" fill="#DE8734"/>
</svg>
