<svg width="24" height="20" viewBox="0 0 24 20" fill="none" xmlns="http://www.w3.org/2000/svg">
<path d="M22.5946 0.365294C22.2238 0.0255928 21.6969 -0.087611 21.2193 0.0697939L0.955648 6.74953C0.403403 6.93156 0.0289076 7.42453 0.00158564 8.00531C-0.0256913 8.58614 0.300867 9.11209 0.833532 9.34521L5.84488 11.5378C5.86932 11.6512 7.30793 18.3235 7.35686 18.5504C7.41965 18.8417 7.56751 19.1012 7.88075 19.181C8.19758 19.2617 8.42142 19.0885 8.65782 18.9115C8.78939 18.813 12.3767 16.1269 12.3767 16.1269L16.7243 19.6846C16.9775 19.8919 17.287 20 17.6026 20C17.7528 20 17.9045 19.9755 18.0521 19.9254C18.5097 19.7703 18.8489 19.3968 18.9595 18.9265L23.009 1.70952C23.124 1.22002 22.9653 0.704995 22.5946 0.365294ZM8.98177 12.7942C8.9793 12.8001 8.97686 12.8067 8.97457 12.8146L8.13628 15.7434L7.20076 11.4045L13.6337 7.83039L9.13607 12.5331C9.06522 12.6072 9.0131 12.6968 8.98177 12.7942ZM9.24783 16.7788L9.99277 14.1761L11.2977 15.244L9.24783 16.7788ZM21.6914 1.39957L17.6419 18.6165C17.6399 18.6251 17.6372 18.6369 17.6174 18.6436C17.5978 18.6502 17.5882 18.6426 17.5815 18.6371L12.8242 14.7441C12.824 14.744 12.8239 14.7439 12.8238 14.7438L10.6196 12.9401L17.701 5.5358C17.9322 5.29396 17.9521 4.91942 17.7476 4.65452C17.543 4.38959 17.1756 4.31392 16.8832 4.4765L6.39771 10.3023L1.3761 8.10514C1.3608 8.09848 1.35238 8.09475 1.35359 8.06886C1.35481 8.04307 1.36354 8.04015 1.37939 8.03493L21.643 1.35523C21.6528 1.35203 21.6639 1.34834 21.6802 1.3632C21.6965 1.37814 21.6938 1.38948 21.6914 1.39957Z" fill="#141414"/>
</svg>
