<svg width="21" height="16" viewBox="0 0 21 16" fill="none" xmlns="http://www.w3.org/2000/svg">
<path d="M20.2912 11.6513H19.5917V2.42432C19.5917 1.37265 18.742 0.5 17.6674 0.5H3.23627C2.18047 0.5 1.31195 1.35358 1.31195 2.42432V11.6513H0.612412C0.274197 11.6513 0 11.9255 0 12.2637V13.5757C0 14.6271 0.849374 15.5 1.92432 15.5H18.9793C20.0349 15.5 20.9036 14.6467 20.9036 13.5757V12.2637C20.9036 11.9255 20.6294 11.6513 20.2912 11.6513ZM2.53673 2.42432C2.53673 2.03895 2.84857 1.72482 3.23623 1.72482H17.6674C18.0536 1.72482 18.3669 2.03744 18.3669 2.42432V11.6513H15.2896C15.0719 9.92154 13.9444 8.47123 12.403 7.7955C14.1034 6.09773 12.8809 3.11806 10.4518 3.12386C8.02279 3.11806 6.8001 6.09818 8.5006 7.7955C6.95924 8.47119 5.83175 9.92154 5.61406 11.6513H2.53673V2.42432ZM10.4518 8.61241C12.2565 8.61241 13.7593 9.92857 14.0515 11.6513H12.4197C12.2573 11.6513 12.1015 11.7158 11.9867 11.8307C11.8922 11.9251 11.7614 11.9793 11.6279 11.9793H9.27575C9.14224 11.9793 9.01147 11.9251 8.91688 11.8306C8.80203 11.7158 8.64631 11.6513 8.48394 11.6513H6.85215C7.14431 9.92857 8.64713 8.61241 10.4518 8.61241ZM8.93235 5.86811C8.93235 5.03029 9.61396 4.34868 10.4518 4.34868C12.4649 4.42507 12.4643 7.31153 10.4518 7.38759C9.614 7.38759 8.93235 6.70597 8.93235 5.86811ZM19.6788 13.5757C19.6788 13.961 19.367 14.2752 18.9793 14.2752H1.92432C1.53809 14.2752 1.22482 13.9625 1.22482 13.5757V12.8761H8.2609C8.55433 13.0891 8.90622 13.2042 9.27571 13.2042H11.6279C11.9974 13.2042 12.3493 13.0892 12.6427 12.8761H19.6788V13.5757Z" fill="#DE8734"/>
</svg>
