<svg width="16" height="16" viewBox="0 0 16 16" fill="none" xmlns="http://www.w3.org/2000/svg">
<path d="M15.2917 8.70835C15.1039 8.70835 14.9237 8.78297 14.7909 8.91581C14.658 9.04865 14.5834 9.22882 14.5834 9.41668V12.4009C14.5829 12.9243 14.3747 13.4261 14.0046 13.7962C13.6345 14.1663 13.1327 14.3744 12.6093 14.375H3.80754C3.28414 14.3744 2.78234 14.1663 2.41224 13.7962C2.04215 13.4261 1.83398 12.9243 1.83341 12.4009V9.41668C1.83341 9.22882 1.75879 9.04865 1.62595 8.91581C1.49311 8.78297 1.31294 8.70835 1.12508 8.70835C0.93722 8.70835 0.757052 8.78297 0.624214 8.91581C0.491376 9.04865 0.416748 9.22882 0.416748 9.41668V12.4009C0.417686 13.2999 0.77523 14.1618 1.41092 14.7975C2.04662 15.4332 2.90853 15.7907 3.80754 15.7917H12.6093C13.5083 15.7907 14.3702 15.4332 15.0059 14.7975C15.6416 14.1618 15.9991 13.2999 16.0001 12.4009V9.41668C16.0001 9.22882 15.9255 9.04865 15.7926 8.91581C15.6598 8.78297 15.4796 8.70835 15.2917 8.70835Z" fill="black"/>
<path d="M4.45921 5.66747L7.50008 2.62659V11.5417C7.50008 11.7295 7.57471 11.9097 7.70755 12.0425C7.84039 12.1754 8.02055 12.25 8.20842 12.25C8.39628 12.25 8.57644 12.1754 8.70928 12.0425C8.84212 11.9097 8.91675 11.7295 8.91675 11.5417V2.62659L11.9576 5.66747C12.0912 5.7965 12.2701 5.86789 12.4559 5.86628C12.6416 5.86467 12.8192 5.79017 12.9506 5.65884C13.0819 5.52751 13.1564 5.34985 13.158 5.16413C13.1596 4.97841 13.0882 4.79948 12.9592 4.66589L8.70921 0.415887C8.57637 0.283095 8.39624 0.208496 8.20842 0.208496C8.02059 0.208496 7.84046 0.283095 7.70762 0.415887L3.45762 4.66589C3.32859 4.79948 3.2572 4.97841 3.25881 5.16413C3.26043 5.34985 3.33492 5.52751 3.46625 5.65884C3.59758 5.79017 3.77524 5.86467 3.96096 5.86628C4.14669 5.86789 4.32561 5.7965 4.45921 5.66747Z" fill="black"/>
</svg>
