<svg fill="none" width="18" height="19" viewBox="0 0 24 24" xmlns="http://www.w3.org/2000/svg">
    <g fill="#DE8734">
        <path
            d="m18 7h.75c0-.19891-.079-.38968-.2197-.53033-.1406-.14065-.3314-.21967-.5303-.21967zm0 4h-.75zm-12-4v-.75c-.19891 0-.38968.07902-.53033.21967s-.21967.33142-.21967.53033zm11.25 0v4h1.5v-4zm0 4v8h1.5v-8zm-1.25 9.25h-8v1.5h8zm-9.25-1.25v-12h-1.5v12zm-.75-11.25h12v-1.5h-12zm0-4h12v-1.5h-12zm-3.25 3.25c0-1.79492 1.45507-3.25 3.25-3.25v-1.5c-2.62335 0-4.75 2.12665-4.75 4.75zm3.25 3.25c-1.79493 0-3.25-1.45507-3.25-3.25h-1.5c0 2.62335 2.12665 4.75 4.75 4.75zm15.25-3.25c0 1.79493-1.4551 3.25-3.25 3.25v1.5c2.6234 0 4.75-2.12665 4.75-4.75zm1.5 0c0-2.62335-2.1266-4.75-4.75-4.75v1.5c1.7949 0 3.25 1.45508 3.25 3.25zm-5.5 12c0 .6904-.5596 1.25-1.25 1.25v1.5c1.5188 0 2.75-1.2312 2.75-2.75zm-9.25 1.25c-.69036 0-1.25-.5596-1.25-1.25h-1.5c0 1.5188 1.23122 2.75 2.75 2.75z" />
        <path
            d="m14.5303 15.5303c.2929-.2929.2929-.7677 0-1.0606s-.7677-.2929-1.0606 0zm-3.2374.7626.5303-.5303zm-.7626-1.8232c-.2929-.2929-.76774-.2929-1.06063 0s-.29289.7677 0 1.0606zm2.2197-3.4697c0-.4142-.3358-.75-.75-.75s-.75.3358-.75.75zm-1.5 5c0 .4142.3358.75.75.75s.75-.3358.75-.75zm2.2197-1.5303-1.2929 1.2929 1.0606 1.0606 1.2929-1.2929zm-1.6465 1.2929-1.2929-1.2929-1.06063 1.0606 1.29293 1.2929zm.3536 0c-.0977.0976-.2559.0976-.3536 0l-1.0606 1.0606c.6834.6834 1.7914.6834 2.4748 0zm-.9268-4.7626v5h1.5v-5z" />
    </g>
</svg>