<svg width="25" height="26" viewBox="0 0 25 26" fill="none" xmlns="http://www.w3.org/2000/svg">
<path d="M18.2365 15.4035L18.2271 15.4816C15.9365 14.3399 15.6969 14.1879 15.401 14.6316C15.1958 14.9389 14.5979 15.6358 14.4177 15.842C14.2354 16.0452 14.0542 16.0608 13.7448 15.9202C13.4323 15.7639 12.4292 15.4358 11.2417 14.3733C10.3167 13.5452 9.69583 12.5295 9.5125 12.217C9.20729 11.6899 9.84583 11.6149 10.4271 10.5149C10.5313 10.2962 10.4781 10.1243 10.401 9.96911C10.3229 9.81286 9.70104 8.28161 9.44063 7.67119C9.19063 7.06286 8.93333 7.13994 8.74063 7.13994C8.14062 7.08786 7.70208 7.09619 7.31562 7.49828C5.63437 9.34619 6.05833 11.2524 7.49688 13.2795C10.324 16.9795 11.8302 17.6608 14.5844 18.6066C15.3281 18.8431 16.0063 18.8097 16.5427 18.7327C17.1406 18.6379 18.3833 17.9816 18.6427 17.2472C18.9083 16.5129 18.9083 15.9035 18.8302 15.7629C18.7531 15.6222 18.549 15.5441 18.2365 15.4035Z" fill="#141414"/>
<path d="M21.375 4.09316C13.3656 -3.64955 0.110417 1.96607 0.105208 12.889C0.105208 15.0723 0.677083 17.2015 1.76667 19.0817L0 25.5005L6.59896 23.7796C14.8333 28.2275 24.9958 22.3213 25 12.8952C25 9.58691 23.7083 6.47337 21.3594 4.13378L21.375 4.09316ZM22.9188 12.8609C22.9125 20.8119 14.1844 25.7775 7.28125 21.7192L6.90625 21.4963L3 22.5119L4.04688 18.715L3.79792 18.3244C-0.497917 11.4859 4.4375 2.54837 12.575 2.54837C15.3396 2.54837 17.9344 3.62649 19.8885 5.57962C21.8417 7.51608 22.9188 10.1109 22.9188 12.8609Z" fill="#141414"/>
</svg>
